# xmcd
#
# Track frame offsets: 
#        150
#        29293
#        56219
#        73193
#        99077
#        131964
#        156424
#        187369
#        207140
#        230827
#        257768
#        285672
#
# Disc length: 4152 seconds
#
# Revision: 1
# Processed by: cddbd v1.5.2PL0 Copyright (c) Steve Scherf et al.
# Submitted via: ExactAudioCopy v1.0b1
#
DISCID=be10360c
DTITLE=Dr Blues and Soul re vision - In The Midnight Hour...
DYEAR=2012
DGENRE=Blues
TTITLE0=In The Midnight Hour
TTITLE1=When Love Comes To Town
TTITLE2=Knock On Wood
TTITLE3=Hallelujah, I Love Her So
TTITLE4=Let The Good Times Roll
TTITLE5=When It All Comes Down
TTITLE6=She's So Fine
TTITLE7=Peace To The World
TTITLE8=Stand By Me
TTITLE9=New Orleans
TTITLE10=Sweet Home Chicago
TTITLE11=I've Got My Mojo Workin'
EXTD=
EXTT0=
EXTT1=
EXTT2=
EXTT3=
EXTT4=
EXTT5=
EXTT6=
EXTT7=
EXTT8=
EXTT9=
EXTT10=
EXTT11=
PLAYORDER=
